<?xml version="1.0" encoding="UTF-8"?>
<svg width="256px" height="256px" viewBox="0 0 256 256" version="1.1" xmlns="http://www.w3.org/2000/svg" xmlns:xlink="http://www.w3.org/1999/xlink" preserveAspectRatio="xMidYMid">
    <g>
        <path d="M126.916,0.072 C56.277,0.072 0.63,13.656 0.63,30.48 L0.63,60.95 L64.143,60.95 L64.143,65.83 L34.313,65.83 C15.211,65.83 0.63,79.311 0.63,95.99 L0.63,150.05 C0.63,166.729 15.211,180.21 34.313,180.21 L64.143,180.21 L64.143,150.05 L0.63,150.05 L0.63,180.21 C0.63,197.034 56.277,210.618 126.916,210.618 C197.555,210.618 253.202,197.034 253.202,180.21 L253.202,150.05 L189.689,150.05 L189.689,180.21 L219.519,180.21 C238.621,180.21 253.202,166.729 253.202,150.05 L253.202,95.99 C253.202,79.311 238.621,65.83 219.519,65.83 L189.689,65.83 L189.689,60.95 L253.202,60.95 L253.202,30.48 C253.202,13.656 197.555,0.072 126.916,0.072 Z" fill="#FFD43B"/>
        <path d="M126.916,0.072 C56.277,0.072 0.63,13.656 0.63,30.48 L0.63,60.95 L64.143,60.95 L64.143,65.83 L34.313,65.83 C15.211,65.83 0.63,79.311 0.63,95.99 L0.63,150.05 C0.63,166.729 15.211,180.21 34.313,180.21 L64.143,180.21 L64.143,150.05 L0.63,150.05 L0.63,180.21 C0.63,197.034 56.277,210.618 126.916,210.618 C197.555,210.618 253.202,197.034 253.202,180.21 L253.202,150.05 L189.689,150.05 L189.689,180.21 L219.519,180.21 C238.621,180.21 253.202,166.729 253.202,150.05 L253.202,95.99 C253.202,79.311 238.621,65.83 219.519,65.83 L189.689,65.83 L189.689,60.95 L253.202,60.95 L253.202,30.48 C253.202,13.656 197.555,0.072 126.916,0.072 Z" fill="#306998" opacity="0.5"/>
        <path d="M126.916,0.072 C56.277,0.072 0.63,13.656 0.63,30.48 L0.63,60.95 L64.143,60.95 L64.143,65.83 L34.313,65.83 C15.211,65.83 0.63,79.311 0.63,95.99 L0.63,150.05 C0.63,166.729 15.211,180.21 34.313,180.21 L64.143,180.21 L64.143,150.05 L0.63,150.05 L0.63,180.21 C0.63,197.034 56.277,210.618 126.916,210.618 C197.555,210.618 253.202,197.034 253.202,180.21 L253.202,150.05 L189.689,150.05 L189.689,180.21 L219.519,180.21 C238.621,180.21 253.202,166.729 253.202,150.05 L253.202,95.99 C253.202,79.311 238.621,65.83 219.519,65.83 L189.689,65.83 L189.689,60.95 L253.202,60.95 L253.202,30.48 C253.202,13.656 197.555,0.072 126.916,0.072 Z" fill="#306998"/>
    </g>
</svg> 