<?xml version="1.0" encoding="UTF-8"?>
<svg width="256px" height="256px" viewBox="0 0 256 256" version="1.1" xmlns="http://www.w3.org/2000/svg" xmlns:xlink="http://www.w3.org/1999/xlink" preserveAspectRatio="xMidYMid">
    <g>
        <path d="M128,0 C57.308,0 0,57.308 0,128 C0,198.692 57.308,256 128,256 C198.692,256 256,198.692 256,128 C256,57.308 198.692,0 128,0 Z" fill="#EE4C2C"/>
        <path d="M128,32 C75.02,32 32,75.02 32,128 C32,180.98 75.02,224 128,224 C180.98,224 224,180.98 224,128 C224,75.02 180.98,32 128,32 Z" fill="#FFFFFF"/>
        <path d="M128,64 C93.49,64 64,93.49 64,128 C64,162.51 93.49,192 128,192 C162.51,192 192,162.51 192,128 C192,93.49 162.51,64 128,64 Z" fill="#EE4C2C"/>
        <path d="M128,96 C111.458,96 96,111.458 96,128 C96,144.542 111.458,160 128,160 C144.542,160 160,144.542 160,128 C160,111.458 144.542,96 128,96 Z" fill="#FFFFFF"/>
        <path d="M128,128 L160,128 L128,160 Z" fill="#EE4C2C"/>
        <path d="M128,128 L96,128 L128,96 Z" fill="#EE4C2C"/>
    </g>
</svg>